<svg xmlns="http://www.w3.org/2000/svg" viewBox="0 0 100 100" fill="none">
  <!-- Simplified ARC mark, derived from the ARC logo: spiral (pattern),
       arch (threshold), plant (creation), purple to gold. -->
  <defs>
    <linearGradient id="arcg" x1="0" y1="0" x2="1" y2="0">
      <stop offset="0" stop-color="#7B68A0"/>
      <stop offset="0.55" stop-color="#98A5C6"/>
      <stop offset="1" stop-color="#C9A87C"/>
    </linearGradient>
  </defs>
  <path d="M 22 92 L 22 48 A 28 28 0 0 1 78 48 L 78 92"
        stroke="url(#arcg)" stroke-width="5.5" stroke-linecap="round"/>
  <path d="M 36 66 c -1 -3 2 -6 5 -5 c 5 1 6 8 1 11 c -6 4 -14 -1 -14 -8 c 0 -10 10 -16 19 -12"
        stroke="#7B68A0" stroke-width="4.5" stroke-linecap="round"/>
  <path d="M 64 88 C 63 76 64 66 67 56 M 66 72 C 59 68 56 61 57 54 M 66 63 C 73 58 76 51 75 44"
        stroke="#a4865e" stroke-width="4.5" stroke-linecap="round"/>
</svg>
