<svg xmlns="http://www.w3.org/2000/svg" viewBox="0 0 140 360" fill="none" aria-hidden="true" role="presentation">
  <g stroke="#B8A9C9" stroke-width="1.6" stroke-linecap="round" stroke-linejoin="round">
    <!-- main stem -->
    <path d="M70 356 C 66 300 62 250 66 200 C 69 160 72 120 70 70"/>
    <!-- lower leaves -->
    <path d="M66 300 C 48 296 36 282 30 262 C 46 266 60 278 66 300 Z"/>
    <path d="M64 268 C 82 262 96 248 102 228 C 84 232 70 246 64 268 Z"/>
    <path d="M63 238 C 46 234 34 220 29 202 C 45 206 58 218 63 238 Z"/>
  </g>
  <!-- flower spike: paired buds -->
  <g stroke="#B8A9C9" stroke-width="1.5" stroke-linecap="round">
    <path d="M70 70 C 64 54 62 40 66 24"/>
    <path d="M70 70 C 76 54 78 40 74 24"/>
  </g>
  <g fill="#C9A87C" opacity="0.85">
    <ellipse cx="60" cy="60" rx="4.6" ry="6.4" transform="rotate(-18 60 60)"/>
    <ellipse cx="80" cy="60" rx="4.6" ry="6.4" transform="rotate(18 80 60)"/>
    <ellipse cx="62" cy="46" rx="4.4" ry="6" transform="rotate(-16 62 46)"/>
    <ellipse cx="78" cy="46" rx="4.4" ry="6" transform="rotate(16 78 46)"/>
    <ellipse cx="64" cy="33" rx="4" ry="5.4" transform="rotate(-14 64 33)"/>
    <ellipse cx="76" cy="33" rx="4" ry="5.4" transform="rotate(14 76 33)"/>
  </g>
  <g fill="#B8A9C9">
    <ellipse cx="70" cy="24" rx="4.2" ry="6"/>
    <ellipse cx="70" cy="14" rx="3.4" ry="4.8"/>
  </g>
</svg>
