<svg xmlns="http://www.w3.org/2000/svg" width="480" height="300" viewBox="0 0 480 300" role="img" aria-label="Cover of ADHD Affirmation Cards, free printable cards by Carrie Davidson">
  <rect width="480" height="300" fill="#FBF7FC"/>
  <circle cx="60" cy="270" r="140" fill="#F4ECF8" opacity="0.6"/>
  <!-- Three cycles, each a little more open: the daily practice motif. -->
  <g fill="none" stroke="#C9A87C" stroke-width="2.5" stroke-linecap="round">
    <path d="M356 84 C 372 90, 380 104, 378 118 C 376 134, 362 144, 346 142 C 330 140, 320 128, 321 112 C 322 99, 331 89, 343 85" opacity="0.9"/>
    <path d="M414 148 C 430 154, 438 168, 436 182 C 434 198, 420 208, 404 206 C 388 204, 378 192, 379 176 C 380 164, 388 154, 398 149" opacity="0.75"/>
    <path d="M352 206 C 366 212, 373 224, 371 237 C 369 251, 357 260, 343 258 C 329 256, 320 245, 321 231 C 322 221, 328 212, 337 208" opacity="0.6"/>
  </g>
  <circle cx="349" cy="82" r="3.5" fill="#5E4B85"/>
  <circle cx="406" cy="146" r="3" fill="#5E4B85" opacity="0.8"/>
  <circle cx="344" cy="205" r="2.5" fill="#5E4B85" opacity="0.6"/>
  <rect x="28" y="58" width="44" height="3" fill="#C9A87C"/>
  <text x="28" y="46" font-family="Georgia, 'Times New Roman', serif" font-size="13" letter-spacing="3" fill="#7A5A2E">FREE PRINTABLE</text>
  <text x="28" y="106" font-family="Georgia, 'Times New Roman', serif" font-size="34" font-weight="bold" fill="#5E4B85">ADHD</text>
  <text x="28" y="146" font-family="Georgia, 'Times New Roman', serif" font-size="34" font-weight="bold" fill="#2B2333">Affirmation Cards</text>
  <text x="28" y="278" font-family="Georgia, 'Times New Roman', serif" font-size="13" fill="#5B4F6B">Carrie Davidson, RN &#183; carriepdavidson.com</text>
</svg>
