<svg xmlns="http://www.w3.org/2000/svg" width="480" height="300" viewBox="0 0 480 300" role="img" aria-label="Cover of Befriending Your Nervous System, a free workbook by Carrie Davidson">
  <rect width="480" height="300" fill="#FFFDFA"/>
  <circle cx="420" cy="40" r="150" fill="#F2ECF7" opacity="0.6"/>
  <!-- waveform settling to calm -->
  <path d="M28 228 q14 -44 28 0 q14 44 28 0 q14 -34 28 0 q14 34 28 0 q14 -22 28 0 q14 22 28 0 q14 -10 28 0 q14 10 28 0 q20 -4 44 -2 q60 -5 120 -8 q50 -2 96 -6"
        fill="none" stroke="#7B68A0" stroke-width="2.5" stroke-linecap="round" opacity="0.9"/>
  <rect x="28" y="58" width="44" height="3" fill="#7B68A0"/>
  <text x="28" y="46" font-family="Georgia, 'Times New Roman', serif" font-size="13" letter-spacing="3" fill="#5D4E7E">FREE WORKBOOK</text>
  <text x="28" y="106" font-family="Georgia, 'Times New Roman', serif" font-size="34" font-weight="bold" fill="#3D2B4F">Befriending Your</text>
  <text x="28" y="146" font-family="Georgia, 'Times New Roman', serif" font-size="34" font-weight="bold" fill="#5D4E7E">Nervous System</text>
  <text x="28" y="278" font-family="Georgia, 'Times New Roman', serif" font-size="13" fill="#5D4E7E">Carrie Davidson, RN &#183; carriepdavidson.com</text>
</svg>
