<svg xmlns="http://www.w3.org/2000/svg" width="1200" height="630" viewBox="0 0 1200 630" role="img" aria-label="One hand-drawn violet line moves from tangled loops through a pause at a still point, then a choice, into an open rising path with lavender blooms. Pattern. Pause. Choice. Creation. The Conscious Creation Method by Carrie Davidson, RN.">
  <!-- OG image source for /method: the Pattern Line with the four words.
       Rendered to assets/og-method.jpg at 1200x630. -->
  <rect width="1200" height="630" fill="#F6F4FB"/>

  <g transform="translate(0,140)">
    <path d="M38 128
         C 62 132, 74 96, 96 88 C 122 79, 138 106, 122 122 C 108 136, 84 128, 90 106
         C 96 84, 130 72, 152 84 C 176 97, 168 130, 144 132 C 126 133, 118 118, 128 104
         C 142 84, 178 78, 198 92 C 214 103, 210 126, 192 130 C 178 133, 170 122, 176 110"
         fill="none" stroke="#7C77C0" stroke-width="3.5" stroke-linecap="round"/>
    <path d="M176 110
         C 196 86, 240 84, 268 90 C 296 96, 296 128, 268 128 C 256 128, 250 120, 258 110
         C 276 88, 316 86, 344 92 C 372 98, 372 128, 344 128 C 332 128, 326 120, 334 110
         C 352 88, 392 88, 418 96 C 442 103, 452 116, 458 124"
         fill="none" stroke="#7C77C0" stroke-width="3.5" stroke-linecap="round"/>
    <circle cx="512" cy="126" r="8" fill="#5A55A0"/>
    <circle cx="512" cy="126" r="16" fill="none" stroke="#B8B2E4" stroke-opacity="0.6" stroke-width="1.8"/>
    <path d="M622 112 C 668 116, 716 122, 762 128 C 800 133, 836 138, 862 142"
         fill="none" stroke="#B8B2E4" stroke-opacity="0.55" stroke-width="2.2" stroke-linecap="round" stroke-dasharray="1 10"/>
    <path d="M566 122 C 586 118, 604 114, 622 112 C 660 106, 690 96, 716 84"
         fill="none" stroke="#7C77C0" stroke-width="3.5" stroke-linecap="round"/>
    <path d="M716 84
         C 762 64, 800 70, 836 66 C 878 61, 906 48, 946 52 C 986 56, 1010 44, 1048 40
         C 1082 36, 1108 42, 1136 34"
         fill="none" stroke="#7C77C0" stroke-width="3.5" stroke-linecap="round"/>
    <g stroke="#7C77C0" stroke-width="2.2" fill="none" stroke-linecap="round">
      <path d="M842 66 C 836 52, 840 40, 850 30"/>
      <path d="M948 52 C 956 38, 954 28, 948 18"/>
    </g>
    <g fill="#B8B2E4">
      <ellipse cx="852" cy="26" rx="6.5" ry="10" transform="rotate(18 852 26)"/>
      <ellipse cx="947" cy="14" rx="6.5" ry="10" transform="rotate(-12 947 14)"/>
    </g>
    <g fill="#B8B2E4" opacity="0.7">
      <ellipse cx="840" cy="38" rx="4.5" ry="7" transform="rotate(28 840 38)"/>
      <ellipse cx="954" cy="28" rx="4.5" ry="7" transform="rotate(-20 954 28)"/>
    </g>
    <circle cx="1136" cy="34" r="4.5" fill="#7C77C0" fill-opacity="0.55"/>
  </g>

  <g text-anchor="middle" fill="#3F3168">
    <text x="600" y="452" font-family="Georgia, 'Times New Roman', serif" font-style="italic"
          font-size="44" letter-spacing="8">Pattern. Pause. Choice. Creation.</text>
  </g>
  <g text-anchor="middle" fill="#55506A">
    <text x="600" y="510" font-family="Arial, Helvetica, sans-serif" font-size="21"
          letter-spacing="3">THE CONSCIOUS CREATION METHOD&#8482;</text>
    <text x="600" y="552" font-family="Arial, Helvetica, sans-serif" font-size="18">
      Carrie Davidson, BSPH, BSN, RN &#183; carriepdavidson.com</text>
  </g>
</svg>
