<svg xmlns="http://www.w3.org/2000/svg" width="1200" height="60" viewBox="0 0 1200 60" aria-hidden="true" focusable="false">
  <!-- PATTERN LANGUAGE divider, grade 1 THE LOOP (Survival/Pattern):
       the line still coils, and once doubles back. Hand-drawn waver. -->
  <path d="M0 40 C 90 36, 170 30, 250 33 C 310 35, 356 42, 396 42
           C 428 42, 434 18, 408 16 C 388 15, 380 30, 394 38
           C 412 49, 452 46, 486 42
           C 512 39, 534 40, 554 41 C 584 42, 588 18, 562 17 C 544 16, 538 30, 550 38
           C 566 48, 606 45, 648 40 C 728 31, 812 33, 894 36 C 990 40, 1096 34, 1200 30"
        fill="none" stroke="#C9A87C" stroke-width="2.5" stroke-linecap="round" opacity="0.85"/>
</svg>
